<svg xmlns="http://www.w3.org/2000/svg" viewBox="0 0 512 512">
  <rect width="512" height="512" rx="128" fill="#065F46"/>
  <path d="M256 425c-5.5 0-10.8-2-14.9-5.6C222.5 403.4 128 318 128 240c0-44.2 35.8-80 80-80 24.6 0 46.4 11.1 61 28.5C283.6 171.1 305.4 160 330 160c44.2 0 80 35.8 80 80 0 78-94.5 163.4-113.1 179.4-4.1 3.6-9.4 5.6-14.9 5.6-.6 0-15.4-12.4-26-21.4z" fill="none"/>
  <path d="M256 410 C200 360 140 300 140 240 C140 200 168 172 208 172 C228 172 246 182 256 198 C266 182 284 172 304 172 C344 172 372 200 372 240 C372 300 312 360 256 410Z" fill="#FBBF24"/>
</svg>
